<!DOCTYPE svg PUBLIC "-//W3C//DTD SVG 1.1//EN" "http://www.w3.org/Graphics/SVG/1.1/DTD/svg11.dtd">
<!-- Uploaded to: SVG Repo, www.svgrepo.com, Transformed by: SVG Repo Mixer Tools -->
<svg width="800px" height="800px" viewBox="0 0 16 16" xmlns="http://www.w3.org/2000/svg" fill="none" stroke="#ffffff">
<g id="SVGRepo_bgCarrier" stroke-width="0"/>
<g id="SVGRepo_tracerCarrier" stroke-linecap="round" stroke-linejoin="round"/>
<g id="SVGRepo_iconCarrier"> <g fill="#ffffff"> <path d="M11.141 1a3.893 3.893 0 00-2.738 1.093L7.314 3.175A.75.75 0 008.372 4.24l1.077-1.07a2.393 2.393 0 013.384 3.382l-1.881 1.88a2.393 2.393 0 01-3.608-.258.75.75 0 00-1.202.899 3.893 3.893 0 005.87.42l1.886-1.886.01-.009A3.893 3.893 0 0011.14 1z"/> <path d="M7.019 5.365a3.893 3.893 0 00-3.032 1.13L2.102 8.382l-.01.01a3.893 3.893 0 005.505 5.504l1.084-1.084a.75.75 0 00-1.06-1.06l-1.07 1.07a2.393 2.393 0 01-3.384-3.384l1.881-1.88a2.393 2.393 0 013.609.258.75.75 0 101.2-.899A3.893 3.893 0 007.02 5.365z"/> </g> </g>
</svg>