<svg xmlns="http://www.w3.org/2000/svg" width="800" height="800" fill="none" viewBox="0 0 32 32"><path fill="url(#a)" fill-rule="evenodd" d="M11.119 14.084a.683.683 0 0 0-1.162.127L4.074 25.98a.704.704 0 0 0 .63 1.02h8.191a.68.68 0 0 0 .63-.389c1.766-3.654.695-9.21-2.406-12.527" clip-rule="evenodd"/><path fill="#2684ff" fill-rule="evenodd" d="M15.434 3.378a15.54 15.54 0 0 0-.906 15.328l3.95 7.905a.7.7 0 0 0 .628.389h8.191a.703.703 0 0 0 .629-1.018L16.63 3.372a.664.664 0 0 0-1.196.005" clip-rule="evenodd"/><defs><linearGradient id="a" x1="14.343" x2="6.091" y1="15.901" y2="24.759" gradientUnits="userSpaceOnUse"><stop stop-color="#0052cc"/><stop offset=".923" stop-color="#2684ff"/></linearGradient></defs></svg>