<svg xmlns="http://www.w3.org/2000/svg" xml:space="preserve" viewBox="0 0 32 32"><path d="M23 0H9C4 0 0 4 0 9v14c0 5 4 9 9 9h14c5 0 9-4 9-9V9c0-5-4-9-9-9" style="fill:#0097d3"/><path d="M12 25c0 .6-.4 1-1 1H7c-.6 0-1-.4-1-1V13c0-.6.4-1 1-1h4c.6 0 1 .4 1 1zM9 11c-1.7 0-3-1.3-3-3s1.3-3 3-3 3 1.3 3 3-1.3 3-3 3m17 14c0 .6-.4 1-1 1h-3c-.6 0-1-.4-1-1v-6.5c0-.8-.7-1.5-1.5-1.5s-1.5.7-1.5 1.5V25c0 .6-.4 1-1 1h-3c-.6 0-1-.4-1-1V13c0-.6.4-1 1-1h4c.3 0 .5.1.7.3q.9-.3 1.8-.3c3 0 5.5 2.5 5.5 5.5z" style="fill:#fff"/></svg>