<svg xmlns="http://www.w3.org/2000/svg" width="800" height="800" fill="none" viewBox="0 0 16 16"><path fill="#2684ff" d="M15.808 7.552 8.69.667 8 0 2.642 5.183l-2.45 2.37A.62.62 0 0 0 0 8c0 .168.069.329.192.448l4.895 4.735L8 16l5.358-5.183.083-.08 2.367-2.29A.62.62 0 0 0 16 8a.62.62 0 0 0-.192-.448M8 10.365 5.554 8 8 5.635 10.446 8z"/><path fill="url(#a)" d="M8 5.634A3.92 3.92 0 0 1 6.794 2.83 3.92 3.92 0 0 1 7.983.018L2.63 5.193 5.543 8.01z"/><path fill="url(#b)" d="M10.452 7.994 8 10.365c.383.37.686.81.893 1.293a3.87 3.87 0 0 1 0 3.05c-.207.483-.51.922-.893 1.292l5.365-5.189z"/><defs><linearGradient id="a" x1="7.563" x2="4.262" y1="3.241" y2="6.654" gradientUnits="userSpaceOnUse"><stop offset=".18" stop-color="#0052cc"/><stop offset="1" stop-color="#2684ff"/></linearGradient><linearGradient id="b" x1="216.055" x2="331.647" y1="490.616" y2="413.158" gradientUnits="userSpaceOnUse"><stop offset=".18" stop-color="#0052cc"/><stop offset="1" stop-color="#2684ff"/></linearGradient></defs></svg>